<svg width="132" height="24" viewBox="0 0 132 24" fill="none" xmlns="http://www.w3.org/2000/svg">
<path d="M0.992 19V2.2H8.624C10.448 2.2 12.056 2.552 13.448 3.256C14.84 3.944 15.928 4.912 16.712 6.16C17.496 7.408 17.888 8.888 17.888 10.6C17.888 12.296 17.496 13.776 16.712 15.04C15.928 16.288 14.84 17.264 13.448 17.968C12.056 18.656 10.448 19 8.624 19H0.992ZM4.88 15.808H8.432C9.552 15.808 10.52 15.6 11.336 15.184C12.168 14.752 12.808 14.144 13.256 13.36C13.72 12.576 13.952 11.656 13.952 10.6C13.952 9.528 13.72 8.608 13.256 7.84C12.808 7.056 12.168 6.456 11.336 6.04C10.52 5.608 9.552 5.392 8.432 5.392H4.88V15.808ZM20.6561 19V6.088H24.4001V19H20.6561ZM22.5281 4.288C21.8401 4.288 21.2801 4.088 20.8481 3.688C20.4161 3.288 20.2001 2.792 20.2001 2.2C20.2001 1.608 20.4161 1.112 20.8481 0.711999C21.2801 0.311999 21.8401 0.111999 22.5281 0.111999C23.2161 0.111999 23.7761 0.303999 24.2081 0.688C24.6401 1.056 24.8561 1.536 24.8561 2.128C24.8561 2.752 24.6401 3.272 24.2081 3.688C23.7921 4.088 23.2321 4.288 22.5281 4.288ZM34.0469 23.848C32.8309 23.848 31.6549 23.696 30.5189 23.392C29.3989 23.104 28.4629 22.664 27.7109 22.072L29.1989 19.384C29.7429 19.832 30.4309 20.184 31.2629 20.44C32.1109 20.712 32.9429 20.848 33.7589 20.848C35.0869 20.848 36.0469 20.552 36.6389 19.96C37.2469 19.368 37.5509 18.488 37.5509 17.32V15.376L37.7909 12.136L37.7429 8.872V6.088H41.2949V16.84C41.2949 19.24 40.6709 21.008 39.4229 22.144C38.1749 23.28 36.3829 23.848 34.0469 23.848ZM33.4709 18.376C32.2709 18.376 31.1829 18.12 30.2069 17.608C29.2469 17.08 28.4709 16.352 27.8789 15.424C27.3029 14.48 27.0149 13.384 27.0149 12.136C27.0149 10.872 27.3029 9.776 27.8789 8.848C28.4709 7.904 29.2469 7.176 30.2069 6.664C31.1829 6.152 32.2709 5.896 33.4709 5.896C34.5589 5.896 35.5189 6.12 36.3509 6.568C37.1829 7 37.8309 7.68 38.2949 8.608C38.7589 9.52 38.9909 10.696 38.9909 12.136C38.9909 13.56 38.7589 14.736 38.2949 15.664C37.8309 16.576 37.1829 17.256 36.3509 17.704C35.5189 18.152 34.5589 18.376 33.4709 18.376ZM34.2149 15.304C34.8709 15.304 35.4549 15.176 35.9669 14.92C36.4789 14.648 36.8789 14.272 37.1669 13.792C37.4549 13.312 37.5989 12.76 37.5989 12.136C37.5989 11.496 37.4549 10.944 37.1669 10.48C36.8789 10 36.4789 9.632 35.9669 9.376C35.4549 9.104 34.8709 8.968 34.2149 8.968C33.5589 8.968 32.9749 9.104 32.4629 9.376C31.9509 9.632 31.5429 10 31.2389 10.48C30.9509 10.944 30.8069 11.496 30.8069 12.136C30.8069 12.76 30.9509 13.312 31.2389 13.792C31.5429 14.272 31.9509 14.648 32.4629 14.92C32.9749 15.176 33.5589 15.304 34.2149 15.304ZM44.8796 19V6.088H48.6236V19H44.8796ZM46.7516 4.288C46.0636 4.288 45.5036 4.088 45.0716 3.688C44.6396 3.288 44.4236 2.792 44.4236 2.2C44.4236 1.608 44.6396 1.112 45.0716 0.711999C45.5036 0.311999 46.0636 0.111999 46.7516 0.111999C47.4396 0.111999 47.9996 0.303999 48.4316 0.688C48.8636 1.056 49.0796 1.536 49.0796 2.128C49.0796 2.752 48.8636 3.272 48.4316 3.688C48.0156 4.088 47.4556 4.288 46.7516 4.288ZM56.1662 19L50.6702 2.2H54.7022L59.4782 17.08H57.4622L62.4542 2.2H66.0542L70.8542 17.08H68.9102L73.8062 2.2H77.5262L72.0302 19H67.8542L63.6062 5.944H64.7102L60.3422 19H56.1662ZM86.4918 19V16.48L86.2518 15.928V11.416C86.2518 10.616 86.0038 9.992 85.5078 9.544C85.0278 9.096 84.2838 8.872 83.2758 8.872C82.5878 8.872 81.9078 8.984 81.2358 9.208C80.5798 9.416 80.0198 9.704 79.5558 10.072L78.2118 7.456C78.9158 6.96 79.7638 6.576 80.7558 6.304C81.7478 6.032 82.7558 5.896 83.7798 5.896C85.7478 5.896 87.2758 6.36 88.3638 7.288C89.4518 8.216 89.9958 9.664 89.9958 11.632V19H86.4918ZM82.5558 19.192C81.5478 19.192 80.6838 19.024 79.9638 18.688C79.2438 18.336 78.6918 17.864 78.3078 17.272C77.9238 16.68 77.7318 16.016 77.7318 15.28C77.7318 14.512 77.9158 13.84 78.2838 13.264C78.6678 12.688 79.2678 12.24 80.0838 11.92C80.8998 11.584 81.9638 11.416 83.2758 11.416H86.7078V13.6H83.6838C82.8038 13.6 82.1958 13.744 81.8598 14.032C81.5398 14.32 81.3798 14.68 81.3798 15.112C81.3798 15.592 81.5638 15.976 81.9318 16.264C82.3158 16.536 82.8358 16.672 83.4918 16.672C84.1158 16.672 84.6758 16.528 85.1718 16.24C85.6678 15.936 86.0278 15.496 86.2518 14.92L86.8278 16.648C86.5558 17.48 86.0598 18.112 85.3398 18.544C84.6198 18.976 83.6918 19.192 82.5558 19.192ZM93.4842 19V1.192H97.2282V19H93.4842ZM100.803 19V1.192H104.547V19H100.803ZM114.53 19.192C113.058 19.192 111.762 18.904 110.642 18.328C109.538 17.752 108.682 16.968 108.074 15.976C107.466 14.968 107.162 13.824 107.162 12.544C107.162 11.248 107.458 10.104 108.05 9.112C108.658 8.104 109.482 7.32 110.522 6.76C111.562 6.184 112.738 5.896 114.05 5.896C115.314 5.896 116.45 6.168 117.458 6.712C118.482 7.24 119.29 8.008 119.882 9.016C120.474 10.008 120.77 11.2 120.77 12.592C120.77 12.736 120.762 12.904 120.746 13.096C120.73 13.272 120.714 13.44 120.698 13.6H110.21V11.416H118.73L117.29 12.064C117.29 11.392 117.154 10.808 116.882 10.312C116.61 9.816 116.234 9.432 115.754 9.16C115.274 8.872 114.714 8.728 114.074 8.728C113.434 8.728 112.866 8.872 112.37 9.16C111.89 9.432 111.514 9.824 111.242 10.336C110.97 10.832 110.834 11.424 110.834 12.112V12.688C110.834 13.392 110.986 14.016 111.29 14.56C111.61 15.088 112.05 15.496 112.61 15.784C113.186 16.056 113.858 16.192 114.626 16.192C115.314 16.192 115.914 16.088 116.426 15.88C116.954 15.672 117.434 15.36 117.866 14.944L119.858 17.104C119.266 17.776 118.522 18.296 117.626 18.664C116.73 19.016 115.698 19.192 114.53 19.192ZM128.642 19.192C127.122 19.192 125.938 18.808 125.09 18.04C124.242 17.256 123.818 16.096 123.818 14.56V3.232H127.562V14.512C127.562 15.056 127.706 15.48 127.994 15.784C128.282 16.072 128.674 16.216 129.17 16.216C129.762 16.216 130.266 16.056 130.682 15.736L131.69 18.376C131.306 18.648 130.842 18.856 130.298 19C129.77 19.128 129.218 19.192 128.642 19.192ZM121.826 9.256V6.376H130.778V9.256H121.826Z" fill="#252B42"/>
</svg>
